<svg data-v-423bf9ae="" xmlns="http://www.w3.org/2000/svg" viewBox="0 0 508 91" class="iconLeft"><!----><!----><!----><g data-v-423bf9ae="" id="4a8f928d-e91e-45d7-a15b-4e40041716af" fill="white" transform="matrix(5.8380842208862305,0,0,5.8380842208862305,96.12547302246094,12.312914848327637)"><path d="M3.63 1.69L4.84 1.69C6.09 1.69 6.57 2.65 6.57 3.81C6.57 4.77 5.91 5.73 4.82 5.73L4.21 5.73L4.21 6.82L4.77 6.82C6.73 6.82 8.46 6.08 8.46 3.81C8.46 1.93 7.38 0.70 5.28 0.70L0.66 0.70L0.49 1.69L1.69 2.16L1.69 9.07L0.52 9.51L0.67 10.50L5.07 10.50L5.22 9.51L3.63 9.07ZM15.09 5.74L15.09 4.12C14.56 3.91 14.08 3.81 13.65 3.81C13.01 3.81 12.28 4.02 11.84 4.17L11.27 3.81L9.45 3.96L9.62 4.82L10.25 4.82L10.25 9.34L9.37 9.65L9.53 10.50L13.01 10.50L13.17 9.65L12.01 9.34L12.01 5.10C12.42 4.94 12.99 4.82 13.27 4.82C13.47 4.82 13.73 4.84 13.83 4.87L14.15 5.91ZM19.29 3.81C17.16 3.81 15.79 5.14 15.79 7.22C15.79 9.31 17.04 10.64 19.29 10.64C21.56 10.64 22.78 9.37 22.78 7.22C22.78 5.08 21.41 3.81 19.29 3.81ZM19.29 4.69C20.33 4.69 21 5.61 21 7.18C21 8.74 20.36 9.76 19.29 9.76C18.20 9.76 17.60 8.72 17.60 7.18C17.60 5.64 18.26 4.69 19.29 4.69ZM32.65 3.68L33.19 9.07L32.06 9.51L32.20 10.50L36.16 10.50L36.30 9.51L35.14 9.07L34.47 2.16L35.64 1.69L35.48 0.70L32.59 0.70L29.82 8.22L29.82 6.82L27.55 0.70L24.74 0.70L24.58 1.69L25.75 2.16L24.93 9.06L23.74 9.51L23.91 10.50L27.02 10.50L27.16 9.51L26.03 9.06L26.66 4.03L29.11 10.74L30.16 10.50ZM37.80 5.74L38.74 5.91L39.05 4.84C39.31 4.77 39.75 4.69 40.08 4.69C40.70 4.69 41.27 5.08 41.27 5.88L41.27 6.37C39.51 6.37 37.28 6.80 37.28 8.71C37.28 9.98 38.39 10.65 39.65 10.65C40.46 10.65 41.03 10.47 41.45 10.18L41.87 10.50L43.65 10.50L43.82 9.65L43.04 9.34L43.04 6.44C43.04 4.75 41.96 3.81 40.15 3.81C39.45 3.81 38.61 3.99 37.80 4.40ZM41.27 9.07C41.03 9.42 40.54 9.63 40.17 9.63C39.77 9.63 39.20 9.38 39.20 8.58C39.20 7.78 39.97 7.24 41.27 7.24ZM46.54 5.53C46.54 3.51 47.49 1.64 49.70 1.64C50.16 1.64 50.86 1.74 51.37 1.88L52.02 3.71L53.02 3.56L53.02 1.37C51.98 0.77 50.93 0.46 49.70 0.46C46.58 0.46 44.45 2.74 44.45 5.60C44.45 8.18 46.07 10.74 49.70 10.74C50.85 10.74 52.25 10.39 53.02 9.83L53.02 7.10L54.21 6.62L54.04 5.63L50.06 5.63L49.91 6.62L51.07 7.08L51.07 9.39C50.67 9.51 50.06 9.56 49.69 9.56C47.28 9.56 46.54 7.43 46.54 5.53ZM57.08 6.38C57.20 5.38 57.79 4.69 58.70 4.69C59.43 4.69 59.99 5.15 59.99 5.98C59.99 6.10 59.98 6.24 59.95 6.38ZM59.01 9.63C57.81 9.63 57.06 8.65 57.04 7.25L61.45 7.25C61.61 6.96 61.75 6.45 61.75 6.08C61.75 4.70 60.38 3.81 58.70 3.81C56.70 3.81 55.12 5.08 55.12 7.22C55.12 9.30 56.28 10.65 58.94 10.65C59.86 10.65 60.75 10.43 61.64 9.70L61.17 8.99C60.45 9.46 59.72 9.63 59.01 9.63ZM66.60 4.82C67.21 4.82 67.84 5.24 67.84 5.96L67.84 9.34L66.96 9.65L67.13 10.50L70.32 10.50L70.49 9.65L69.61 9.34L69.61 6.17C69.61 4.65 68.57 3.81 66.95 3.81C66.36 3.81 65.66 4.02 65.20 4.17L64.62 3.81L62.83 3.96L62.99 4.82L63.62 4.82L63.62 9.34L62.73 9.65L62.89 10.50L66.12 10.50L66.28 9.65L65.38 9.34L65.38 5.10C65.74 4.97 66.23 4.82 66.60 4.82Z"></path></g><!----><g data-v-423bf9ae="" id="601a6fb5-e7af-4419-9cfc-ccd6c7868eb1" transform="matrix(1.0000433921813965,0,0,1.0000433921813965,-10.48849868774414,-4.004122734069824)" stroke="none" fill="white"><path d="M49.777 77.055c-14.773 0-26.793-12.019-26.793-26.793 0-14.775 12.02-26.793 26.793-26.793 14.774 0 26.794 12.02 26.794 26.794s-12.02 26.792-26.794 26.792zm0-45.784c-10.471 0-18.989 8.519-18.989 18.99 0 10.47 8.519 18.989 18.989 18.989 10.471 0 18.992-8.519 18.992-18.989 0-10.471-8.521-18.99-18.992-18.99zM47.094 8.159c0 .768.273 1.468.726 2.016.299.996.081 2.103.112 2.667.06 1.156-1.274 4.628-1.274 4.628v3.137H52.9V17.47s-.856-3.545-.794-4.727c.031-.541.291-1.59.581-2.55a3.119 3.119 0 0 0 .735-2.034 3.164 3.164 0 0 0-6.328 0zM52.983 91.841c0-.769-.272-1.468-.728-2.015-.298-.996-.341-2.104-.37-2.668-.06-1.156 1.013-4.628 1.013-4.628v-2.616h-6.245v2.616s1.119 3.544 1.056 4.727a12.25 12.25 0 0 1-.452 2.551c-.463.547-.67 1.257-.67 2.033 0 1.744 1.453 3.159 3.197 3.159 1.749 0 3.199-1.413 3.199-3.159zM12.313 31.603a3.127 3.127 0 0 0 2.109.378c1.013.241 1.862.985 2.366 1.237 1.031.528 3.369 3.417 3.369 3.417l2.719 1.571 3.122-5.407-2.719-1.568s-3.499-1.03-4.49-1.677c-.452-.297-1.23-1.048-1.918-1.779a3.13 3.13 0 0 0-1.393-1.652 3.162 3.162 0 0 0-4.317 1.16 3.161 3.161 0 0 0 1.152 4.32zM87.729 68.34a3.142 3.142 0 0 0-2.107-.378c-1.012-.241-1.992-.756-2.496-1.013-1.031-.523-3.5-3.188-3.5-3.188l-2.268-1.31-3.122 5.406 2.269 1.308s3.629.805 4.619 1.45c.453.297 1.295.938 1.983 1.665.243.678.756 1.21 1.427 1.597 1.51.873 3.463.322 4.333-1.188.873-1.511.374-3.476-1.138-4.349zM15.226 73.443a3.127 3.127 0 0 0 1.383-1.636c.715-.758 1.782-1.12 2.252-1.43.974-.631 4.646-1.211 4.646-1.211l2.719-1.569-3.122-5.405-2.718 1.569s-2.642 2.515-3.698 3.048c-.483.245-1.521.544-2.5.772a3.128 3.128 0 0 0-2.125.381 3.165 3.165 0 0 0 3.163 5.481zM84.75 26.501a3.15 3.15 0 0 0-1.381 1.635c-.714.756-1.65 1.348-2.125 1.657-.97.629-4.511 1.436-4.511 1.436l-2.269 1.31 3.122 5.408 2.266-1.312s2.513-2.74 3.567-3.275a12.167 12.167 0 0 1 2.434-.885c.708.127 1.426-.05 2.096-.437 1.512-.872 2.01-2.836 1.14-4.348-.876-1.512-2.827-2.062-4.339-1.189z"></path><path d="M62.422 53.623l-1.3-.266c.271-.99.428-2.023.428-3.096 0-1.074-.157-2.11-.43-3.099l1.302-.268c.843-.172 1.179-.921.748-1.666l-2.341-4.054c-.43-.744-1.247-.827-1.816-.184l-.882.991a11.771 11.771 0 0 0-5.367-3.093l.42-1.261c.271-.813-.208-1.48-1.069-1.48h-4.679c-.859 0-1.338.667-1.067 1.48l.419 1.26a11.789 11.789 0 0 0-5.369 3.094l-.878-.989c-.57-.642-1.387-.559-1.817.185l-2.341 4.054c-.43.742-.094 1.491.748 1.664l1.301.266c-.271.99-.429 2.025-.429 3.099 0 1.072.158 2.109.428 3.097l-1.3.266c-.842.171-1.178.921-.748 1.667l2.341 4.054c.43.743 1.247.826 1.816.185l.879-.992a11.752 11.752 0 0 0 5.369 3.094l-.419 1.26c-.272.812.208 1.479 1.067 1.479h4.681c.859 0 1.339-.663 1.069-1.479l-.42-1.26a11.789 11.789 0 0 0 5.369-3.094l.879.99c.57.642 1.388.56 1.817-.184l2.34-4.055c.428-.743.092-1.491-.749-1.665zM49.777 57.35c-3.909 0-7.087-3.18-7.087-7.088a7.095 7.095 0 0 1 7.087-7.089 7.095 7.095 0 0 1 7.089 7.089 7.095 7.095 0 0 1-7.089 7.088z"></path></g><!----></svg>