<svg data-v-423bf9ae="" xmlns="http://www.w3.org/2000/svg" viewBox="0 0 508 91" class="iconLeftSlogan"><!----><!----><!----><g data-v-423bf9ae="" id="e1f526ca-7773-4b48-a598-b9d4da78d2a7" fill="#D1A103" transform="matrix(5.8380842208862305,0,0,5.8380842208862305,96.12547302246094,-2.690991163253784)"><path d="M3.63 1.69L4.84 1.69C6.09 1.69 6.57 2.65 6.57 3.81C6.57 4.77 5.91 5.73 4.82 5.73L4.21 5.73L4.21 6.82L4.77 6.82C6.73 6.82 8.46 6.08 8.46 3.81C8.46 1.93 7.38 0.70 5.28 0.70L0.66 0.70L0.49 1.69L1.69 2.16L1.69 9.07L0.52 9.51L0.67 10.50L5.07 10.50L5.22 9.51L3.63 9.07ZM15.09 5.74L15.09 4.12C14.56 3.91 14.08 3.81 13.65 3.81C13.01 3.81 12.28 4.02 11.84 4.17L11.27 3.81L9.45 3.96L9.62 4.82L10.25 4.82L10.25 9.34L9.37 9.65L9.53 10.50L13.01 10.50L13.17 9.65L12.01 9.34L12.01 5.10C12.42 4.94 12.99 4.82 13.27 4.82C13.47 4.82 13.73 4.84 13.83 4.87L14.15 5.91ZM19.29 3.81C17.16 3.81 15.79 5.14 15.79 7.22C15.79 9.31 17.04 10.64 19.29 10.64C21.56 10.64 22.78 9.37 22.78 7.22C22.78 5.08 21.41 3.81 19.29 3.81ZM19.29 4.69C20.33 4.69 21 5.61 21 7.18C21 8.74 20.36 9.76 19.29 9.76C18.20 9.76 17.60 8.72 17.60 7.18C17.60 5.64 18.26 4.69 19.29 4.69ZM32.65 3.68L33.19 9.07L32.06 9.51L32.20 10.50L36.16 10.50L36.30 9.51L35.14 9.07L34.47 2.16L35.64 1.69L35.48 0.70L32.59 0.70L29.82 8.22L29.82 6.82L27.55 0.70L24.74 0.70L24.58 1.69L25.75 2.16L24.93 9.06L23.74 9.51L23.91 10.50L27.02 10.50L27.16 9.51L26.03 9.06L26.66 4.03L29.11 10.74L30.16 10.50ZM37.80 5.74L38.74 5.91L39.05 4.84C39.31 4.77 39.75 4.69 40.08 4.69C40.70 4.69 41.27 5.08 41.27 5.88L41.27 6.37C39.51 6.37 37.28 6.80 37.28 8.71C37.28 9.98 38.39 10.65 39.65 10.65C40.46 10.65 41.03 10.47 41.45 10.18L41.87 10.50L43.65 10.50L43.82 9.65L43.04 9.34L43.04 6.44C43.04 4.75 41.96 3.81 40.15 3.81C39.45 3.81 38.61 3.99 37.80 4.40ZM41.27 9.07C41.03 9.42 40.54 9.63 40.17 9.63C39.77 9.63 39.20 9.38 39.20 8.58C39.20 7.78 39.97 7.24 41.27 7.24ZM46.54 5.53C46.54 3.51 47.49 1.64 49.70 1.64C50.16 1.64 50.86 1.74 51.37 1.88L52.02 3.71L53.02 3.56L53.02 1.37C51.98 0.77 50.93 0.46 49.70 0.46C46.58 0.46 44.45 2.74 44.45 5.60C44.45 8.18 46.07 10.74 49.70 10.74C50.85 10.74 52.25 10.39 53.02 9.83L53.02 7.10L54.21 6.62L54.04 5.63L50.06 5.63L49.91 6.62L51.07 7.08L51.07 9.39C50.67 9.51 50.06 9.56 49.69 9.56C47.28 9.56 46.54 7.43 46.54 5.53ZM57.08 6.38C57.20 5.38 57.79 4.69 58.70 4.69C59.43 4.69 59.99 5.15 59.99 5.98C59.99 6.10 59.98 6.24 59.95 6.38ZM59.01 9.63C57.81 9.63 57.06 8.65 57.04 7.25L61.45 7.25C61.61 6.96 61.75 6.45 61.75 6.08C61.75 4.70 60.38 3.81 58.70 3.81C56.70 3.81 55.12 5.08 55.12 7.22C55.12 9.30 56.28 10.65 58.94 10.65C59.86 10.65 60.75 10.43 61.64 9.70L61.17 8.99C60.45 9.46 59.72 9.63 59.01 9.63ZM66.60 4.82C67.21 4.82 67.84 5.24 67.84 5.96L67.84 9.34L66.96 9.65L67.13 10.50L70.32 10.50L70.49 9.65L69.61 9.34L69.61 6.17C69.61 4.65 68.57 3.81 66.95 3.81C66.36 3.81 65.66 4.02 65.20 4.17L64.62 3.81L62.83 3.96L62.99 4.82L63.62 4.82L63.62 9.34L62.73 9.65L62.89 10.50L66.12 10.50L66.28 9.65L65.38 9.34L65.38 5.10C65.74 4.97 66.23 4.82 66.60 4.82Z"></path></g><!----><g data-v-423bf9ae="" id="650238ca-15f5-4912-9c0c-c054bdcfc0f2" transform="matrix(1.0000433921813965,0,0,1.0000433921813965,-10.48849868774414,-4.004122734069824)" stroke="none" fill="#D1A103"><path d="M49.777 77.055c-14.773 0-26.793-12.019-26.793-26.793 0-14.775 12.02-26.793 26.793-26.793 14.774 0 26.794 12.02 26.794 26.794s-12.02 26.792-26.794 26.792zm0-45.784c-10.471 0-18.989 8.519-18.989 18.99 0 10.47 8.519 18.989 18.989 18.989 10.471 0 18.992-8.519 18.992-18.989 0-10.471-8.521-18.99-18.992-18.99zM47.094 8.159c0 .768.273 1.468.726 2.016.299.996.081 2.103.112 2.667.06 1.156-1.274 4.628-1.274 4.628v3.137H52.9V17.47s-.856-3.545-.794-4.727c.031-.541.291-1.59.581-2.55a3.119 3.119 0 0 0 .735-2.034 3.164 3.164 0 0 0-6.328 0zM52.983 91.841c0-.769-.272-1.468-.728-2.015-.298-.996-.341-2.104-.37-2.668-.06-1.156 1.013-4.628 1.013-4.628v-2.616h-6.245v2.616s1.119 3.544 1.056 4.727a12.25 12.25 0 0 1-.452 2.551c-.463.547-.67 1.257-.67 2.033 0 1.744 1.453 3.159 3.197 3.159 1.749 0 3.199-1.413 3.199-3.159zM12.313 31.603a3.127 3.127 0 0 0 2.109.378c1.013.241 1.862.985 2.366 1.237 1.031.528 3.369 3.417 3.369 3.417l2.719 1.571 3.122-5.407-2.719-1.568s-3.499-1.03-4.49-1.677c-.452-.297-1.23-1.048-1.918-1.779a3.13 3.13 0 0 0-1.393-1.652 3.162 3.162 0 0 0-4.317 1.16 3.161 3.161 0 0 0 1.152 4.32zM87.729 68.34a3.142 3.142 0 0 0-2.107-.378c-1.012-.241-1.992-.756-2.496-1.013-1.031-.523-3.5-3.188-3.5-3.188l-2.268-1.31-3.122 5.406 2.269 1.308s3.629.805 4.619 1.45c.453.297 1.295.938 1.983 1.665.243.678.756 1.21 1.427 1.597 1.51.873 3.463.322 4.333-1.188.873-1.511.374-3.476-1.138-4.349zM15.226 73.443a3.127 3.127 0 0 0 1.383-1.636c.715-.758 1.782-1.12 2.252-1.43.974-.631 4.646-1.211 4.646-1.211l2.719-1.569-3.122-5.405-2.718 1.569s-2.642 2.515-3.698 3.048c-.483.245-1.521.544-2.5.772a3.128 3.128 0 0 0-2.125.381 3.165 3.165 0 0 0 3.163 5.481zM84.75 26.501a3.15 3.15 0 0 0-1.381 1.635c-.714.756-1.65 1.348-2.125 1.657-.97.629-4.511 1.436-4.511 1.436l-2.269 1.31 3.122 5.408 2.266-1.312s2.513-2.74 3.567-3.275a12.167 12.167 0 0 1 2.434-.885c.708.127 1.426-.05 2.096-.437 1.512-.872 2.01-2.836 1.14-4.348-.876-1.512-2.827-2.062-4.339-1.189z"></path><path d="M62.422 53.623l-1.3-.266c.271-.99.428-2.023.428-3.096 0-1.074-.157-2.11-.43-3.099l1.302-.268c.843-.172 1.179-.921.748-1.666l-2.341-4.054c-.43-.744-1.247-.827-1.816-.184l-.882.991a11.771 11.771 0 0 0-5.367-3.093l.42-1.261c.271-.813-.208-1.48-1.069-1.48h-4.679c-.859 0-1.338.667-1.067 1.48l.419 1.26a11.789 11.789 0 0 0-5.369 3.094l-.878-.989c-.57-.642-1.387-.559-1.817.185l-2.341 4.054c-.43.742-.094 1.491.748 1.664l1.301.266c-.271.99-.429 2.025-.429 3.099 0 1.072.158 2.109.428 3.097l-1.3.266c-.842.171-1.178.921-.748 1.667l2.341 4.054c.43.743 1.247.826 1.816.185l.879-.992a11.752 11.752 0 0 0 5.369 3.094l-.419 1.26c-.272.812.208 1.479 1.067 1.479h4.681c.859 0 1.339-.663 1.069-1.479l-.42-1.26a11.789 11.789 0 0 0 5.369-3.094l.879.99c.57.642 1.388.56 1.817-.184l2.34-4.055c.428-.743.092-1.491-.749-1.665zM49.777 57.35c-3.909 0-7.087-3.18-7.087-7.088a7.095 7.095 0 0 1 7.087-7.089 7.095 7.095 0 0 1 7.089 7.089 7.095 7.095 0 0 1-7.089 7.088z"></path></g><!----><g data-v-423bf9ae="" id="abb3b123-57a0-4727-bf83-e064b624b140" fill="#D1A103" transform="matrix(0.960518479347229,0,0,0.960518479347229,98.47705841064453,57.04340362548828)"><path d="M0.52 3.51C0.52 3.75 0.56 3.79 0.77 3.79L1.69 3.77C1.75 3.77 1.75 4.47 1.75 5.24L1.75 5.96C1.75 7.70 1.74 12.18 1.62 12.18L0.95 12.18C0.73 12.18 0.66 12.19 0.66 12.39C0.66 12.63 0.67 12.68 0.87 12.68C0.99 12.68 1.97 12.64 2.39 12.64C2.81 12.64 3.68 12.68 4.00 12.68C4.17 12.68 4.20 12.61 4.20 12.40C4.20 12.24 4.17 12.18 4.00 12.18L3.01 12.18C2.97 12.18 2.95 10.60 2.95 9.58L2.95 8.65C2.95 8.57 2.95 8.54 3.05 8.54C3.44 8.54 3.77 8.58 4.27 8.58C6.26 8.58 7.66 7.83 7.66 6.01C7.66 4.09 6.17 3.22 4.26 3.22C3.93 3.22 2.84 3.29 2.42 3.29C2.18 3.29 0.99 3.26 0.77 3.26C0.59 3.26 0.52 3.28 0.52 3.51ZM2.97 8.05L2.97 4.40C2.97 4.05 2.98 3.70 3.02 3.68C3.15 3.67 3.32 3.67 3.46 3.67C5.11 3.67 6.37 4.47 6.37 5.80C6.37 7.57 5.04 8.19 3.46 8.19C3.21 8.19 2.97 8.16 2.97 8.05ZM15.05 7.71C15.05 7.76 15.08 7.76 15.15 7.76C15.19 7.76 15.90 7.73 15.99 7.73C16.07 7.73 16.10 9.20 16.10 10.33C16.10 11.24 16.09 12.21 15.99 12.21L15.37 12.21C15.20 12.21 15.20 12.29 15.20 12.43C15.20 12.59 15.22 12.67 15.39 12.67C15.81 12.67 16.28 12.64 16.63 12.64C17.04 12.64 17.89 12.67 18.16 12.67C18.34 12.67 18.34 12.56 18.34 12.43C18.34 12.29 18.33 12.21 18.16 12.21L17.23 12.21C17.14 12.21 17.11 11.47 17.11 10.68C17.11 9.46 17.22 7.87 17.86 7.87C18.10 7.87 18.38 8.32 18.69 8.32C18.96 8.32 19.26 7.85 19.26 7.69C19.26 7.49 18.87 7.04 18.42 7.04C17.98 7.04 17.40 7.49 17.08 8.26C17.01 8.40 17.02 8.46 17.02 8.23C17.02 7.98 17.04 7.64 17.04 7.42C17.04 7.29 17.04 7.29 16.87 7.29C16.77 7.29 15.88 7.32 15.36 7.34C15.16 7.34 15.13 7.34 15.11 7.45C15.09 7.52 15.05 7.66 15.05 7.71ZM26.74 10.04C26.74 11.58 27.90 12.85 29.43 12.85C31.19 12.85 32.23 11.58 32.23 9.84C32.23 8.29 31.21 7.01 29.65 7.01C27.90 7.01 26.74 8.37 26.74 10.04ZM27.82 10.23C27.82 8.69 28.21 7.46 29.48 7.46C30.62 7.46 31.14 8.74 31.14 9.74C31.14 10.92 30.90 12.40 29.43 12.40C28.38 12.40 27.82 11.27 27.82 10.23ZM39.49 16.17C39.49 16.34 39.59 16.49 39.80 16.49C40.22 16.49 41.30 15.99 41.57 15.65C42.24 14.78 42.34 13.72 42.34 12.22C42.34 10.43 42.27 8.88 42.27 7.63C42.27 7.39 42.28 7.27 42.13 7.27C42.08 7.27 41.02 7.32 40.21 7.35C40.11 7.35 40.05 7.66 40.05 7.76C40.05 7.83 40.08 7.81 40.15 7.81C40.28 7.81 41.03 7.77 41.13 7.77C41.19 7.77 41.20 7.76 41.22 7.92C41.24 8.30 41.24 8.65 41.24 8.99C41.24 13.17 41.37 14.48 41.37 15.02C41.37 15.23 41.24 15.44 40.88 15.44C40.75 15.44 40.38 15.39 40.08 15.39C39.89 15.39 39.49 15.85 39.49 16.17ZM40.54 4.48C40.54 4.90 40.85 5.10 41.16 5.10C41.57 5.10 42.06 4.77 42.06 4.27C42.06 3.84 41.73 3.67 41.43 3.67C41.08 3.67 40.54 3.95 40.54 4.48ZM50.95 10.01C50.95 11.68 51.91 12.85 53.68 12.85C55.13 12.85 56.13 11.56 56.13 11.48C56.13 11.45 55.89 11.24 55.85 11.24C55.76 11.24 55.17 12.15 54.00 12.15C52.99 12.15 52.00 11.33 52.00 9.88C52.00 9.72 52.01 9.49 52.04 9.42C52.25 9.42 55.01 9.49 55.16 9.49C55.30 9.49 55.96 9.46 55.96 9.28C55.96 8.09 55.24 7.01 53.83 7.01C52.12 7.01 50.95 8.33 50.95 10.01ZM52.07 9.03C52.12 8.34 52.77 7.41 53.66 7.41C54.10 7.41 54.91 7.70 54.91 8.99C54.91 9.04 54.74 9.03 54.39 9.04C53.69 9.07 52.26 9.10 52.19 9.10C52.08 9.10 52.07 9.09 52.07 9.03ZM63.94 10.12C63.94 11.73 64.96 12.78 66.63 12.78C68.01 12.78 68.88 11.90 68.88 11.82C68.88 11.68 68.84 11.66 68.74 11.66C68.67 11.66 68.01 12.08 67.05 12.08C65.63 12.08 64.93 10.93 64.93 9.77C64.93 8.68 65.62 7.43 66.78 7.43C67.63 7.43 67.66 8.04 67.89 8.68C67.93 8.82 68.04 8.86 68.17 8.86C68.31 8.86 68.49 8.76 68.61 8.67C68.74 8.57 68.77 8.48 68.77 8.36C68.77 7.60 67.79 6.97 66.86 6.97C65.49 6.97 63.94 8.02 63.94 10.12ZM76.69 7.78C76.69 7.87 76.72 7.92 76.80 7.92L77.15 7.92C77.28 7.92 77.31 8.19 77.31 8.74C77.31 9.14 77.28 10.77 77.28 11.77C77.28 12.21 77.52 12.77 78.33 12.77C78.82 12.77 79.77 12.36 80.07 12.15C80.14 12.10 80.14 12.08 80.14 12.01C80.14 11.93 80.12 11.80 80.07 11.80C79.93 11.80 79.46 12.03 78.92 12.03C78.32 12.03 78.29 11.63 78.29 11.20L78.29 8.51C78.29 8.15 78.29 7.91 78.34 7.91L79.67 7.91C79.80 7.91 79.84 7.85 79.90 7.66C79.91 7.59 79.94 7.49 79.94 7.43C79.94 7.36 79.91 7.35 79.84 7.35L78.40 7.35C78.29 7.35 78.29 7.35 78.29 7.25C78.29 7.03 78.37 5.95 78.37 5.91C78.37 5.81 78.33 5.74 78.22 5.74C78.15 5.74 78.09 5.78 78.04 5.87L76.76 7.64C76.72 7.69 76.69 7.73 76.69 7.78ZM97.55 12.39C97.55 12.63 97.58 12.68 97.78 12.68C98.01 12.68 98.52 12.64 98.94 12.64C99.36 12.64 99.85 12.68 100.17 12.68C100.34 12.68 100.37 12.61 100.37 12.40C100.37 12.24 100.34 12.18 100.17 12.18L99.20 12.18C99.15 12.18 99.13 11.54 99.13 10.79C99.13 8.96 99.18 6.13 99.25 4.28C99.27 3.88 99.30 3.91 99.44 4.27L102.70 12.32C102.80 12.54 102.87 12.74 102.98 12.74C103.08 12.74 103.15 12.63 103.24 12.45C103.57 11.79 103.75 11.75 104.02 11.09L106.61 4.47C106.74 4.16 106.78 4.02 106.79 4.47C106.82 5.66 106.86 8.47 106.86 9.74C106.86 10.99 106.82 12.18 106.76 12.18L106.13 12.18C105.91 12.18 105.84 12.19 105.84 12.39C105.84 12.63 105.87 12.68 106.06 12.68C106.26 12.68 106.96 12.64 107.56 12.64C107.98 12.64 108.74 12.68 109.06 12.68C109.23 12.68 109.26 12.61 109.26 12.40C109.26 12.22 109.20 12.18 109.03 12.18L108.30 12.18C108.19 12.18 108.09 8.44 108.09 6.03L108.09 4.77C108.09 4.17 108.12 3.77 108.16 3.70L108.82 3.70C109.05 3.70 109.09 3.68 109.09 3.49C109.09 3.25 109.07 3.19 108.88 3.19C108.56 3.19 107.87 3.23 107.45 3.23L106.78 3.23C106.55 3.23 106.53 3.29 106.41 3.58L103.67 10.72C103.59 10.95 103.56 11.02 103.45 10.74L100.51 3.40C100.44 3.22 100.38 3.19 100.24 3.19C100.16 3.19 99.67 3.23 99.36 3.23C98.85 3.23 98 3.19 97.80 3.19C97.66 3.19 97.66 3.26 97.66 3.47C97.66 3.64 97.66 3.70 97.80 3.70L98.50 3.70C98.77 3.70 98.77 3.72 98.77 3.84C98.77 4.82 98.56 9.94 98.52 10.79C98.48 11.55 98.48 12.18 98.42 12.18L97.85 12.18C97.62 12.18 97.55 12.19 97.55 12.39ZM117.08 11.61C117.08 12.35 117.61 12.84 118.50 12.84C119.11 12.84 119.83 12.45 120.23 12.19C120.33 12.14 120.34 12.11 120.39 12.24C120.47 12.46 120.53 12.88 120.97 12.88C121.07 12.88 121.31 12.74 121.56 12.56C121.90 12.31 122.28 12.04 122.28 12.01C122.28 11.93 122.12 11.73 122.05 11.73C122.02 11.73 121.60 12.08 121.49 12.08C121.45 12.08 121.24 12.01 121.24 11.70C121.24 11.40 121.32 9.56 121.32 8.85C121.32 7.73 120.89 6.97 119.45 6.97C118.52 6.97 117.28 7.67 117.28 8.85C117.28 9.00 117.33 9.11 117.40 9.11C117.47 9.11 117.98 8.86 118.22 8.69C118.30 8.64 118.31 8.50 118.31 8.41C118.31 7.84 118.34 7.63 118.72 7.48C118.85 7.42 119.01 7.39 119.15 7.39C120.32 7.39 120.33 8.32 120.33 9.31C120.33 9.44 120.33 9.48 120.26 9.49C118.87 9.73 117.08 10.32 117.08 11.61ZM118.15 11.21C118.15 10.58 118.78 10.22 119.43 10.01C119.83 9.88 120.25 9.80 120.29 9.80C120.32 9.80 120.33 9.81 120.33 9.91L120.33 11.75C120.33 11.84 119.55 12.14 119.01 12.14C118.45 12.14 118.15 11.65 118.15 11.21ZM129.78 7.73C129.78 7.77 129.79 7.80 129.85 7.80C129.91 7.80 130.59 7.74 130.63 7.74C130.72 7.74 130.77 7.70 130.79 7.90C130.82 8.33 130.82 8.81 130.82 9.28C130.82 9.73 130.79 12.21 130.70 12.21L130.07 12.21C129.91 12.21 129.89 12.29 129.89 12.43C129.89 12.59 129.89 12.67 130.07 12.67C130.49 12.67 131.00 12.64 131.35 12.64C131.75 12.64 132.26 12.67 132.52 12.67C132.71 12.67 132.71 12.56 132.71 12.43C132.71 12.29 132.71 12.21 132.51 12.21L131.98 12.21C131.85 12.21 131.84 12.21 131.84 11.98C131.84 10.84 131.85 9.67 131.85 8.53C131.85 8.41 131.87 8.36 132.08 8.25C132.36 8.11 132.76 7.85 133.31 7.85C134.36 7.85 134.61 8.62 134.61 9.63C134.61 11.03 134.58 12.21 134.53 12.21L133.92 12.21C133.77 12.21 133.70 12.26 133.70 12.45C133.70 12.61 133.70 12.67 133.91 12.67C134.33 12.67 134.78 12.64 135.13 12.64C135.53 12.64 135.91 12.67 136.18 12.67C136.37 12.67 136.39 12.56 136.39 12.43C136.39 12.25 136.33 12.21 136.15 12.21L135.73 12.21C135.62 12.21 135.62 12.21 135.62 12.08C135.62 11.87 135.69 10.47 135.69 9.70C135.69 8.33 135.44 7.18 133.78 7.18C132.92 7.18 132.40 7.63 131.98 7.90C131.88 7.95 131.82 8.05 131.82 7.90L131.82 7.42C131.82 7.28 131.85 7.21 131.64 7.22C131.24 7.25 130.28 7.31 130.09 7.32C129.89 7.34 129.91 7.35 129.86 7.46C129.84 7.53 129.78 7.67 129.78 7.73ZM144.14 11.61C144.14 12.35 144.68 12.84 145.56 12.84C146.17 12.84 146.89 12.45 147.29 12.19C147.39 12.14 147.41 12.11 147.45 12.24C147.53 12.46 147.59 12.88 148.04 12.88C148.13 12.88 148.37 12.74 148.62 12.56C148.96 12.31 149.34 12.04 149.34 12.01C149.34 11.93 149.18 11.73 149.11 11.73C149.09 11.73 148.67 12.08 148.55 12.08C148.51 12.08 148.30 12.01 148.30 11.70C148.30 11.40 148.39 9.56 148.39 8.85C148.39 7.73 147.95 6.97 146.51 6.97C145.59 6.97 144.34 7.67 144.34 8.85C144.34 9.00 144.40 9.11 144.47 9.11C144.54 9.11 145.04 8.86 145.28 8.69C145.36 8.64 145.38 8.50 145.38 8.41C145.38 7.84 145.40 7.63 145.78 7.48C145.91 7.42 146.08 7.39 146.22 7.39C147.38 7.39 147.39 8.32 147.39 9.31C147.39 9.44 147.39 9.48 147.32 9.49C145.94 9.73 144.14 10.32 144.14 11.61ZM145.21 11.21C145.21 10.58 145.84 10.22 146.50 10.01C146.89 9.88 147.31 9.80 147.35 9.80C147.38 9.80 147.39 9.81 147.39 9.91L147.39 11.75C147.39 11.84 146.61 12.14 146.08 12.14C145.52 12.14 145.21 11.65 145.21 11.21ZM156.73 15.02C156.73 16.18 158.20 16.70 159.36 16.70C161.18 16.70 162.48 15.79 162.48 14.34C162.48 12.47 159.60 12.67 157.82 12.56C157.79 12.56 157.65 12.32 157.65 12.18C157.65 12.12 157.67 12.10 157.68 12.10C158.62 11.83 159.46 11.62 160.10 11.37C161.11 10.99 161.74 10.40 161.74 9.20C161.74 8.62 161.57 8.26 161.57 8.20C161.57 8.16 162.20 8.05 162.34 8.04C162.41 8.04 162.43 7.97 162.43 7.91C162.43 7.76 162.36 7.48 162.26 7.48C161.84 7.50 161.29 7.74 161.24 7.74C161.17 7.74 160.57 7.03 159.50 7.03C158.24 7.03 157.00 7.90 157.00 9.16C157.00 10.49 157.77 11.16 158.80 11.45C158.87 11.47 158.93 11.48 158.93 11.49C158.93 11.51 157.53 11.87 157.47 11.89C157.26 11.93 157.19 12.12 157.19 12.38C157.19 12.53 157.21 12.78 157.32 13.06C157.42 13.27 157.68 13.36 157.92 13.36L158.42 13.36C158.72 13.36 158.66 13.36 158.45 13.43C157.75 13.62 156.73 14.11 156.73 15.02ZM157.44 14.92C157.44 14.04 158.55 13.59 159.21 13.59C160.24 13.59 161.60 13.92 161.60 14.67C161.60 15.86 160.40 16.25 159.35 16.25C158.51 16.25 157.44 15.81 157.44 14.92ZM157.98 9.10C157.98 8.19 158.66 7.46 159.43 7.46C160.26 7.46 160.79 8.09 160.79 9.18C160.79 10.43 159.98 11.23 159.46 11.23C159.14 11.23 157.98 10.46 157.98 9.10ZM169.90 10.01C169.90 11.68 170.87 12.85 172.63 12.85C174.09 12.85 175.08 11.56 175.08 11.48C175.08 11.45 174.85 11.24 174.80 11.24C174.72 11.24 174.13 12.15 172.96 12.15C171.95 12.15 170.95 11.33 170.95 9.88C170.95 9.72 170.97 9.49 171.00 9.42C171.21 9.42 173.96 9.49 174.12 9.49C174.26 9.49 174.92 9.46 174.92 9.28C174.92 8.09 174.20 7.01 172.79 7.01C171.08 7.01 169.90 8.33 169.90 10.01ZM171.02 9.03C171.08 8.34 171.72 7.41 172.62 7.41C173.05 7.41 173.87 7.70 173.87 8.99C173.87 9.04 173.70 9.03 173.35 9.04C172.65 9.07 171.22 9.10 171.15 9.10C171.04 9.10 171.02 9.09 171.02 9.03ZM182.74 7.71C182.74 7.76 182.77 7.76 182.84 7.76C182.88 7.76 183.60 7.73 183.68 7.73C183.76 7.73 183.79 9.20 183.79 10.33C183.79 11.24 183.78 12.21 183.68 12.21L183.06 12.21C182.90 12.21 182.90 12.29 182.90 12.43C182.90 12.59 182.91 12.67 183.08 12.67C183.50 12.67 183.97 12.64 184.32 12.64C184.73 12.64 185.58 12.67 185.85 12.67C186.03 12.67 186.03 12.56 186.03 12.43C186.03 12.29 186.02 12.21 185.85 12.21L184.93 12.21C184.83 12.21 184.80 11.47 184.80 10.68C184.80 9.46 184.91 7.87 185.56 7.87C185.79 7.87 186.07 8.32 186.38 8.32C186.65 8.32 186.96 7.85 186.96 7.69C186.96 7.49 186.56 7.04 186.12 7.04C185.67 7.04 185.09 7.49 184.77 8.26C184.70 8.40 184.72 8.46 184.72 8.23C184.72 7.98 184.73 7.64 184.73 7.42C184.73 7.29 184.73 7.29 184.56 7.29C184.46 7.29 183.57 7.32 183.05 7.34C182.85 7.34 182.83 7.34 182.80 7.45C182.78 7.52 182.74 7.66 182.74 7.71ZM204.37 10.43C204.37 11.79 205.37 12.78 206.92 12.78C208.12 12.78 209.15 11.72 209.58 11.24C209.69 11.12 209.71 11.12 209.80 11.26C209.97 11.49 210.29 12.00 210.46 12.61C210.50 12.74 210.55 12.78 210.71 12.78C210.92 12.78 211.43 12.66 212.37 12.64C212.58 12.64 212.59 12.63 212.59 12.39C212.59 12.19 212.59 12.18 212.46 12.18C211.68 12.18 211.64 12.08 211.47 11.80C211.23 11.37 210.87 10.79 210.56 10.42C210.48 10.30 210.43 10.25 210.43 10.22C210.48 10.08 211.50 8.64 211.78 8.23C211.89 8.06 211.96 7.99 212.03 7.99L212.51 7.99C212.70 7.99 212.74 7.98 212.74 7.78C212.74 7.55 212.72 7.49 212.56 7.49C212.42 7.49 211.90 7.53 211.53 7.53C210.81 7.53 210.20 7.49 209.97 7.49C209.85 7.49 209.79 7.53 209.79 7.74C209.79 7.97 209.79 7.99 209.97 7.99L210.85 7.99C211.09 7.99 211.08 8.01 211.08 8.02C211.08 8.30 210.52 9.18 210.22 9.72C210.13 9.90 210.14 9.91 209.97 9.73C209.24 8.95 208.64 8.29 207.79 7.57C207.61 7.42 207.59 7.42 207.80 7.28C208.33 6.92 209.57 5.99 209.57 5.01C209.57 4.03 208.63 3.57 207.62 3.57C206.37 3.57 205.30 4.52 205.30 5.80C205.30 6.45 205.79 7.10 206.09 7.45C206.21 7.57 206.29 7.63 206.29 7.66C206.29 7.69 206.23 7.73 206.12 7.81C205.60 8.18 204.37 9.16 204.37 10.43ZM205.32 9.84C205.32 9.00 205.91 8.48 206.33 8.18C206.51 8.05 206.61 7.98 206.65 7.98C206.71 7.98 206.77 8.04 206.89 8.13C207.69 8.79 208.81 9.90 209.33 10.63C209.38 10.72 209.43 10.77 209.43 10.79C209.43 10.82 209.40 10.85 209.36 10.91C209.08 11.19 208.38 11.83 207.37 11.83C206.33 11.83 205.32 10.93 205.32 9.84ZM206.29 5.35C206.29 4.69 206.65 4.07 207.45 4.07C208.10 4.07 208.53 4.63 208.53 5.24C208.53 6.03 207.94 6.61 207.55 6.90C207.41 7.00 207.34 7.06 207.27 7.06C207.21 7.06 207.13 6.97 206.99 6.82C206.70 6.47 206.29 5.87 206.29 5.35ZM230.44 7.91C230.44 11.40 232.81 12.89 235.40 12.89C237.29 12.89 239.29 11.89 239.29 11.58C239.29 11.12 239.30 10.68 239.30 10.33C239.30 9.81 239.32 9.56 239.44 9.56L239.88 9.56C240.02 9.56 240.03 9.39 240.03 9.30C240.03 9.18 240.02 9.06 239.88 9.06C239.65 9.06 239.29 9.10 238.62 9.10C238.17 9.10 237.43 9.07 236.74 9.06C236.60 9.06 236.60 9.24 236.60 9.35C236.60 9.45 236.63 9.56 236.75 9.56L237.97 9.56C238.01 9.56 238.07 9.87 238.07 10.33C238.07 10.82 238.06 11.41 238.03 11.65C238.01 11.76 237.37 12.39 235.79 12.39C233.55 12.39 231.95 10.29 231.95 7.94C231.95 5.42 233.51 3.54 235.51 3.54C237.40 3.54 238.57 4.87 238.57 5.03C238.57 5.15 238.52 6.12 238.52 6.17C238.52 6.31 238.56 6.36 238.83 6.36C239.02 6.36 239.09 6.33 239.09 6.15C239.09 5.43 239.13 3.75 239.13 3.56C239.13 3.36 239.04 3.33 238.83 3.33C238.60 3.33 238.57 3.39 238.57 3.56L238.57 3.91C238.57 3.99 238.53 4.02 238.41 3.92C238.13 3.72 237.13 3.08 235.56 3.08C232.72 3.08 230.44 4.79 230.44 7.91ZM247.94 10.01C247.94 11.68 248.91 12.85 250.67 12.85C252.13 12.85 253.12 11.56 253.12 11.48C253.12 11.45 252.88 11.24 252.84 11.24C252.76 11.24 252.17 12.15 250.99 12.15C249.98 12.15 248.99 11.33 248.99 9.88C248.99 9.72 249.00 9.49 249.03 9.42C249.24 9.42 252.00 9.49 252.15 9.49C252.29 9.49 252.95 9.46 252.95 9.28C252.95 8.09 252.24 7.01 250.82 7.01C249.12 7.01 247.94 8.33 247.94 10.01ZM249.06 9.03C249.12 8.34 249.76 7.41 250.66 7.41C251.09 7.41 251.90 7.70 251.90 8.99C251.90 9.04 251.73 9.03 251.38 9.04C250.68 9.07 249.26 9.10 249.19 9.10C249.07 9.10 249.06 9.09 249.06 9.03ZM260.76 7.73C260.76 7.77 260.78 7.80 260.83 7.80C260.89 7.80 261.58 7.74 261.62 7.74C261.70 7.74 261.76 7.70 261.77 7.90C261.80 8.33 261.80 8.81 261.80 9.28C261.80 9.73 261.77 12.21 261.69 12.21L261.06 12.21C260.89 12.21 260.88 12.29 260.88 12.43C260.88 12.59 260.88 12.67 261.06 12.67C261.48 12.67 261.98 12.64 262.33 12.64C262.74 12.64 263.24 12.67 263.51 12.67C263.69 12.67 263.69 12.56 263.69 12.43C263.69 12.29 263.69 12.21 263.49 12.21L262.96 12.21C262.84 12.21 262.82 12.21 262.82 11.98C262.82 10.84 262.84 9.67 262.84 8.53C262.84 8.41 262.85 8.36 263.06 8.25C263.34 8.11 263.75 7.85 264.29 7.85C265.34 7.85 265.59 8.62 265.59 9.63C265.59 11.03 265.57 12.21 265.51 12.21L264.91 12.21C264.75 12.21 264.68 12.26 264.68 12.45C264.68 12.61 264.68 12.67 264.89 12.67C265.31 12.67 265.76 12.64 266.11 12.64C266.52 12.64 266.90 12.67 267.16 12.67C267.36 12.67 267.37 12.56 267.37 12.43C267.37 12.25 267.32 12.21 267.13 12.21L266.71 12.21C266.60 12.21 266.60 12.21 266.60 12.08C266.60 11.87 266.67 10.47 266.67 9.70C266.67 8.33 266.42 7.18 264.77 7.18C263.90 7.18 263.38 7.63 262.96 7.90C262.86 7.95 262.81 8.05 262.81 7.90L262.81 7.42C262.81 7.28 262.84 7.21 262.63 7.22C262.22 7.25 261.27 7.31 261.07 7.32C260.88 7.34 260.89 7.35 260.85 7.46C260.82 7.53 260.76 7.67 260.76 7.73ZM275.07 10.01C275.07 11.68 276.04 12.85 277.80 12.85C279.26 12.85 280.25 11.56 280.25 11.48C280.25 11.45 280.01 11.24 279.97 11.24C279.89 11.24 279.30 12.15 278.12 12.15C277.12 12.15 276.12 11.33 276.12 9.88C276.12 9.72 276.14 9.49 276.16 9.42C276.37 9.42 279.13 9.49 279.29 9.49C279.43 9.49 280.08 9.46 280.08 9.28C280.08 8.09 279.37 7.01 277.96 7.01C276.25 7.01 275.07 8.33 275.07 10.01ZM276.19 9.03C276.25 8.34 276.89 7.41 277.79 7.41C278.22 7.41 279.03 7.70 279.03 8.99C279.03 9.04 278.87 9.03 278.52 9.04C277.82 9.07 276.39 9.10 276.32 9.10C276.21 9.10 276.19 9.09 276.19 9.03ZM287.91 7.71C287.91 7.76 287.94 7.76 288.01 7.76C288.05 7.76 288.76 7.73 288.85 7.73C288.93 7.73 288.96 9.20 288.96 10.33C288.96 11.24 288.95 12.21 288.85 12.21L288.23 12.21C288.06 12.21 288.06 12.29 288.06 12.43C288.06 12.59 288.08 12.67 288.25 12.67C288.67 12.67 289.14 12.64 289.49 12.64C289.90 12.64 290.75 12.67 291.02 12.67C291.20 12.67 291.20 12.56 291.20 12.43C291.20 12.29 291.19 12.21 291.02 12.21L290.09 12.21C290.00 12.21 289.97 11.47 289.97 10.68C289.97 9.46 290.08 7.87 290.72 7.87C290.96 7.87 291.24 8.32 291.55 8.32C291.82 8.32 292.12 7.85 292.12 7.69C292.12 7.49 291.73 7.04 291.28 7.04C290.84 7.04 290.26 7.49 289.94 8.26C289.87 8.40 289.88 8.46 289.88 8.23C289.88 7.98 289.90 7.64 289.90 7.42C289.90 7.29 289.90 7.29 289.73 7.29C289.63 7.29 288.74 7.32 288.22 7.34C288.02 7.34 287.99 7.34 287.97 7.45C287.95 7.52 287.91 7.66 287.91 7.71ZM299.67 11.61C299.67 12.35 300.20 12.84 301.08 12.84C301.70 12.84 302.41 12.45 302.82 12.19C302.92 12.14 302.93 12.11 302.97 12.24C303.06 12.46 303.11 12.88 303.56 12.88C303.66 12.88 303.90 12.74 304.15 12.56C304.49 12.31 304.86 12.04 304.86 12.01C304.86 11.93 304.71 11.73 304.64 11.73C304.61 11.73 304.19 12.08 304.08 12.08C304.04 12.08 303.83 12.01 303.83 11.70C303.83 11.40 303.91 9.56 303.91 8.85C303.91 7.73 303.48 6.97 302.04 6.97C301.11 6.97 299.87 7.67 299.87 8.85C299.87 9.00 299.92 9.11 299.99 9.11C300.06 9.11 300.57 8.86 300.80 8.69C300.89 8.64 300.90 8.50 300.90 8.41C300.90 7.84 300.93 7.63 301.31 7.48C301.43 7.42 301.60 7.39 301.74 7.39C302.90 7.39 302.92 8.32 302.92 9.31C302.92 9.44 302.92 9.48 302.85 9.49C301.46 9.73 299.67 10.32 299.67 11.61ZM300.73 11.21C300.73 10.58 301.36 10.22 302.02 10.01C302.41 9.88 302.83 9.80 302.88 9.80C302.90 9.80 302.92 9.81 302.92 9.91L302.92 11.75C302.92 11.84 302.13 12.14 301.60 12.14C301.04 12.14 300.73 11.65 300.73 11.21ZM312.52 7.78C312.52 7.87 312.55 7.92 312.63 7.92L312.98 7.92C313.11 7.92 313.14 8.19 313.14 8.74C313.14 9.14 313.11 10.77 313.11 11.77C313.11 12.21 313.35 12.77 314.16 12.77C314.65 12.77 315.60 12.36 315.90 12.15C315.97 12.10 315.97 12.08 315.97 12.01C315.97 11.93 315.95 11.80 315.90 11.80C315.76 11.80 315.29 12.03 314.75 12.03C314.15 12.03 314.12 11.63 314.12 11.20L314.12 8.51C314.12 8.15 314.12 7.91 314.17 7.91L315.50 7.91C315.63 7.91 315.67 7.85 315.73 7.66C315.74 7.59 315.77 7.49 315.77 7.43C315.77 7.36 315.74 7.35 315.67 7.35L314.23 7.35C314.12 7.35 314.12 7.35 314.12 7.25C314.12 7.03 314.20 5.95 314.20 5.91C314.20 5.81 314.16 5.74 314.05 5.74C313.98 5.74 313.92 5.78 313.87 5.87L312.59 7.64C312.55 7.69 312.52 7.73 312.52 7.78ZM323.51 10.04C323.51 11.58 324.67 12.85 326.20 12.85C327.96 12.85 329 11.58 329 9.84C329 8.29 327.98 7.01 326.42 7.01C324.67 7.01 323.51 8.37 323.51 10.04ZM324.59 10.23C324.59 8.69 324.98 7.46 326.26 7.46C327.39 7.46 327.91 8.74 327.91 9.74C327.91 10.92 327.67 12.40 326.20 12.40C325.15 12.40 324.59 11.27 324.59 10.23ZM336.67 7.71C336.67 7.76 336.70 7.76 336.77 7.76C336.81 7.76 337.53 7.73 337.61 7.73C337.69 7.73 337.72 9.20 337.72 10.33C337.72 11.24 337.71 12.21 337.61 12.21L336.99 12.21C336.83 12.21 336.83 12.29 336.83 12.43C336.83 12.59 336.84 12.67 337.01 12.67C337.43 12.67 337.90 12.64 338.25 12.64C338.66 12.64 339.51 12.67 339.78 12.67C339.96 12.67 339.96 12.56 339.96 12.43C339.96 12.29 339.95 12.21 339.78 12.21L338.86 12.21C338.76 12.21 338.73 11.47 338.73 10.68C338.73 9.46 338.84 7.87 339.49 7.87C339.72 7.87 340.00 8.32 340.31 8.32C340.58 8.32 340.89 7.85 340.89 7.69C340.89 7.49 340.49 7.04 340.05 7.04C339.60 7.04 339.02 7.49 338.70 8.26C338.63 8.40 338.65 8.46 338.65 8.23C338.65 7.98 338.66 7.64 338.66 7.42C338.66 7.29 338.66 7.29 338.49 7.29C338.39 7.29 337.50 7.32 336.98 7.34C336.78 7.34 336.76 7.34 336.73 7.45C336.71 7.52 336.67 7.66 336.67 7.71Z"></path></g></svg>