<svg data-v-423bf9ae="" xmlns="http://www.w3.org/2000/svg" viewBox="0 0 52.64615251074172 60" class="icon"><!----><!----><!----><!----><g data-v-423bf9ae="" id="8cc8d85b-5910-4bb6-bfad-19b656bff3f8" transform="matrix(0.6666377186775208,0,0,0.6666377186775208,-7.028339862823486,-3.3305838108062744)" stroke="none" fill="black"><path d="M49.777 77.055c-14.773 0-26.793-12.019-26.793-26.793 0-14.775 12.02-26.793 26.793-26.793 14.774 0 26.794 12.02 26.794 26.794s-12.02 26.792-26.794 26.792zm0-45.784c-10.471 0-18.989 8.519-18.989 18.99 0 10.47 8.519 18.989 18.989 18.989 10.471 0 18.992-8.519 18.992-18.989 0-10.471-8.521-18.99-18.992-18.99zM47.094 8.159c0 .768.273 1.468.726 2.016.299.996.081 2.103.112 2.667.06 1.156-1.274 4.628-1.274 4.628v3.137H52.9V17.47s-.856-3.545-.794-4.727c.031-.541.291-1.59.581-2.55a3.119 3.119 0 0 0 .735-2.034 3.164 3.164 0 0 0-6.328 0zM52.983 91.841c0-.769-.272-1.468-.728-2.015-.298-.996-.341-2.104-.37-2.668-.06-1.156 1.013-4.628 1.013-4.628v-2.616h-6.245v2.616s1.119 3.544 1.056 4.727a12.25 12.25 0 0 1-.452 2.551c-.463.547-.67 1.257-.67 2.033 0 1.744 1.453 3.159 3.197 3.159 1.749 0 3.199-1.413 3.199-3.159zM12.313 31.603a3.127 3.127 0 0 0 2.109.378c1.013.241 1.862.985 2.366 1.237 1.031.528 3.369 3.417 3.369 3.417l2.719 1.571 3.122-5.407-2.719-1.568s-3.499-1.03-4.49-1.677c-.452-.297-1.23-1.048-1.918-1.779a3.13 3.13 0 0 0-1.393-1.652 3.162 3.162 0 0 0-4.317 1.16 3.161 3.161 0 0 0 1.152 4.32zM87.729 68.34a3.142 3.142 0 0 0-2.107-.378c-1.012-.241-1.992-.756-2.496-1.013-1.031-.523-3.5-3.188-3.5-3.188l-2.268-1.31-3.122 5.406 2.269 1.308s3.629.805 4.619 1.45c.453.297 1.295.938 1.983 1.665.243.678.756 1.21 1.427 1.597 1.51.873 3.463.322 4.333-1.188.873-1.511.374-3.476-1.138-4.349zM15.226 73.443a3.127 3.127 0 0 0 1.383-1.636c.715-.758 1.782-1.12 2.252-1.43.974-.631 4.646-1.211 4.646-1.211l2.719-1.569-3.122-5.405-2.718 1.569s-2.642 2.515-3.698 3.048c-.483.245-1.521.544-2.5.772a3.128 3.128 0 0 0-2.125.381 3.165 3.165 0 0 0 3.163 5.481zM84.75 26.501a3.15 3.15 0 0 0-1.381 1.635c-.714.756-1.65 1.348-2.125 1.657-.97.629-4.511 1.436-4.511 1.436l-2.269 1.31 3.122 5.408 2.266-1.312s2.513-2.74 3.567-3.275a12.167 12.167 0 0 1 2.434-.885c.708.127 1.426-.05 2.096-.437 1.512-.872 2.01-2.836 1.14-4.348-.876-1.512-2.827-2.062-4.339-1.189z"></path><path d="M62.422 53.623l-1.3-.266c.271-.99.428-2.023.428-3.096 0-1.074-.157-2.11-.43-3.099l1.302-.268c.843-.172 1.179-.921.748-1.666l-2.341-4.054c-.43-.744-1.247-.827-1.816-.184l-.882.991a11.771 11.771 0 0 0-5.367-3.093l.42-1.261c.271-.813-.208-1.48-1.069-1.48h-4.679c-.859 0-1.338.667-1.067 1.48l.419 1.26a11.789 11.789 0 0 0-5.369 3.094l-.878-.989c-.57-.642-1.387-.559-1.817.185l-2.341 4.054c-.43.742-.094 1.491.748 1.664l1.301.266c-.271.99-.429 2.025-.429 3.099 0 1.072.158 2.109.428 3.097l-1.3.266c-.842.171-1.178.921-.748 1.667l2.341 4.054c.43.743 1.247.826 1.816.185l.879-.992a11.752 11.752 0 0 0 5.369 3.094l-.419 1.26c-.272.812.208 1.479 1.067 1.479h4.681c.859 0 1.339-.663 1.069-1.479l-.42-1.26a11.789 11.789 0 0 0 5.369-3.094l.879.99c.57.642 1.388.56 1.817-.184l2.34-4.055c.428-.743.092-1.491-.749-1.665zM49.777 57.35c-3.909 0-7.087-3.18-7.087-7.088a7.095 7.095 0 0 1 7.087-7.089 7.095 7.095 0 0 1 7.089 7.089 7.095 7.095 0 0 1-7.089 7.088z"></path></g><!----></svg>